HIERARCHY
ROOT hip
{
OFFSET 1.07 95.76 0.46
CHANNELS 6 Xposition Yposition Zposition Zrotation Xrotation Yrotation
JOINT abdomen
{
OFFSET -0.83 7.19 -0
CHANNELS 6 Xposition Yposition Zposition Zrotation Xrotation Yrotation
JOINT chest
{
OFFSET 0 16.54 -0
CHANNELS 6 Xposition Yposition Zposition Zrotation Xrotation Yrotation
JOINT neck
{
OFFSET 0 34.21 0
CHANNELS 6 Xposition Yposition Zposition Zrotation Xrotation Yrotation
JOINT head
{
OFFSET 0 6.29 0
CHANNELS 6 Xposition Yposition Zposition Zrotation Xrotation Yrotation
End Site
{
OFFSET 0 0 0
}
}
}
JOINT lCollar
{
OFFSET 4.06 26.61 -1.12
CHANNELS 6 Xposition Yposition Zposition Zrotation Xrotation Yrotation
JOINT lShldr
{
OFFSET 14.17 0 0
CHANNELS 6 Xposition Yposition Zposition Zrotation Xrotation Yrotation
JOINT lForeArm
{
OFFSET 26.12 0 0
CHANNELS 6 Xposition Yposition Zposition Zrotation Xrotation Yrotation
JOINT lHand
{
OFFSET 27.71 0 0
CHANNELS 6 Xposition Yposition Zposition Zrotation Xrotation Yrotation
JOINT lThumb1
{
OFFSET 2.29 -0.46 1.83
CHANNELS 6 Xposition Yposition Zposition Zrotation Xrotation Yrotation
JOINT lThumb2
{
OFFSET 5.29 0 0
CHANNELS 6 Xposition Yposition Zposition Zrotation Xrotation Yrotation
JOINT lThumb3
{
OFFSET 3.01 0 0
CHANNELS 6 Xposition Yposition Zposition Zrotation Xrotation Yrotation
End Site
{
OFFSET 0 0 0
}
}
}
}
JOINT lIndex1
{
OFFSET 9.37 0.29 2.59
CHANNELS 6 Xposition Yposition Zposition Zrotation Xrotation Yrotation
JOINT lIndex2
{
OFFSET 4.34 0 0
CHANNELS 6 Xposition Yposition Zposition Zrotation Xrotation Yrotation
JOINT lIndex3
{
OFFSET 2.16 0 0
CHANNELS 6 Xposition Yposition Zposition Zrotation Xrotation Yrotation
End Site
{
OFFSET 0 0 0
}
}
}
}
JOINT lMid1
{
OFFSET 9.47 0.83 0.29
CHANNELS 6 Xposition Yposition Zposition Zrotation Xrotation Yrotation
JOINT lMid2
{
OFFSET 4.77 0 0
CHANNELS 6 Xposition Yposition Zposition Zrotation Xrotation Yrotation
JOINT lMid3
{
OFFSET 2.87 0 0
CHANNELS 6 Xposition Yposition Zposition Zrotation Xrotation Yrotation
End Site
{
OFFSET 0 0 0
}
}
}
}
JOINT lRing1
{
OFFSET 8.65 1.01 -1.70
CHANNELS 6 Xposition Yposition Zposition Zrotation Xrotation Yrotation
JOINT lRing2
{
OFFSET 4.54 0 0
CHANNELS 6 Xposition Yposition Zposition Zrotation Xrotation Yrotation
JOINT lRing3
{
OFFSET 2.50 0 0
CHANNELS 6 Xposition Yposition Zposition Zrotation Xrotation Yrotation
End Site
{
OFFSET 0 0 0
}
}
}
}
JOINT lPinky1
{
OFFSET 7.69 0.66 -3.90
CHANNELS 6 Xposition Yposition Zposition Zrotation Xrotation Yrotation
JOINT lPinky2
{
OFFSET 3.21 0 0
CHANNELS 6 Xposition Yposition Zposition Zrotation Xrotation Yrotation
JOINT lPinky3
{
OFFSET 1.92 0 0
CHANNELS 6 Xposition Yposition Zposition Zrotation Xrotation Yrotation
End Site
{
OFFSET 0 0 0
}
}
}
}
}
}
}
}
JOINT rCollar
{
OFFSET -4.06 26.61 -1.12
CHANNELS 6 Xposition Yposition Zposition Zrotation Xrotation Yrotation
JOINT rShldr
{
OFFSET -14.17 0 0
CHANNELS 6 Xposition Yposition Zposition Zrotation Xrotation Yrotation
JOINT rForeArm
{
OFFSET -26.12 0 0
CHANNELS 6 Xposition Yposition Zposition Zrotation Xrotation Yrotation
JOINT rHand
{
OFFSET -27.71 0 0
CHANNELS 6 Xposition Yposition Zposition Zrotation Xrotation Yrotation
JOINT rThumb1
{
OFFSET -2.29 -0.46 1.83
CHANNELS 6 Xposition Yposition Zposition Zrotation Xrotation Yrotation
JOINT rThumb2
{
OFFSET -5.29 0 0
CHANNELS 6 Xposition Yposition Zposition Zrotation Xrotation Yrotation
JOINT rThumb3
{
OFFSET -3.01 0 0
CHANNELS 6 Xposition Yposition Zposition Zrotation Xrotation Yrotation
End Site
{
OFFSET 0 0 0
}
}
}
}
JOINT rIndex1
{
OFFSET -9.37 0.29 2.59
CHANNELS 6 Xposition Yposition Zposition Zrotation Xrotation Yrotation
JOINT rIndex2
{
OFFSET -4.34 0 0
CHANNELS 6 Xposition Yposition Zposition Zrotation Xrotation Yrotation
JOINT rIndex3
{
OFFSET -2.16 0 0
CHANNELS 6 Xposition Yposition Zposition Zrotation Xrotation Yrotation
End Site
{
OFFSET 0 0 0
}
}
}
}
JOINT rMid1
{
OFFSET -9.47 0.83 0.29
CHANNELS 6 Xposition Yposition Zposition Zrotation Xrotation Yrotation
JOINT rMid2
{
OFFSET -4.77 0 0
CHANNELS 6 Xposition Yposition Zposition Zrotation Xrotation Yrotation
JOINT rMid3
{
OFFSET -2.87 0 0
CHANNELS 6 Xposition Yposition Zposition Zrotation Xrotation Yrotation
End Site
{
OFFSET 0 0 0
}
}
}
}
JOINT rRing1
{
OFFSET -8.65 1.01 -1.70
CHANNELS 6 Xposition Yposition Zposition Zrotation Xrotation Yrotation
JOINT rRing2
{
OFFSET -4.54 0 0
CHANNELS 6 Xposition Yposition Zposition Zrotation Xrotation Yrotation
JOINT rRing3
{
OFFSET -2.50 0 0
CHANNELS 6 Xposition Yposition Zposition Zrotation Xrotation Yrotation
End Site
{
OFFSET 0 0 0
}
}
}
}
JOINT rPinky1
{
OFFSET -7.69 0.66 -3.90
CHANNELS 6 Xposition Yposition Zposition Zrotation Xrotation Yrotation
JOINT rPinky2
{
OFFSET -3.21 0 0
CHANNELS 6 Xposition Yposition Zposition Zrotation Xrotation Yrotation
JOINT rPinky3
{
OFFSET -1.92 0 0
CHANNELS 6 Xposition Yposition Zposition Zrotation Xrotation Yrotation
End Site
{
OFFSET 0 0 0
}
}
}
}
}
}
}
}
}
}
JOINT lThigh
{
OFFSET 8.73 -0 0
CHANNELS 6 Xposition Yposition Zposition Zrotation Xrotation Yrotation
JOINT lShin
{
OFFSET 0 -46.66 0
CHANNELS 6 Xposition Yposition Zposition Zrotation Xrotation Yrotation
JOINT lFoot
{
OFFSET 0 -40.14 0
CHANNELS 6 Xposition Yposition Zposition Zrotation Xrotation Yrotation
JOINT lToes
{
OFFSET 0 -8.88 14.22
CHANNELS 6 Xposition Yposition Zposition Zrotation Xrotation Yrotation
End Site
{
OFFSET 0 0 0
}
}
}
}
}
JOINT rThigh
{
OFFSET -8.73 0 -0
CHANNELS 6 Xposition Yposition Zposition Zrotation Xrotation Yrotation
JOINT rShin
{
OFFSET 0 -46.66 0
CHANNELS 6 Xposition Yposition Zposition Zrotation Xrotation Yrotation
JOINT rFoot
{
OFFSET 0 -40.14 0
CHANNELS 6 Xposition Yposition Zposition Zrotation Xrotation Yrotation
JOINT rToes
{
OFFSET 0 -8.88 14.22
CHANNELS 6 Xposition Yposition Zposition Zrotation Xrotation Yrotation
End Site
{
OFFSET 0 0 0
}
}
}
}
}
}
MOTION
Frames: 4
Frame Time: 0.03
1.07 95.76 0.46 -2.74 -2.36 -9.98 -0.83 7.19 -0 3.87 -0.21 -0.57 0 16.54 -0 0.29 4.71 -1.43 0 34.21 0 -0.56 37.37 0.17 0 6.29 0 0.19 -34.41 -1.24 4.06 26.61 -1.12 -7.81 -3.94 -4.80 14.17 0 0 -80.85 45.22 20.24 26.12 0 0 0 0 -19.19 27.71 0 0 5.05 -47.00 2.92 2.29 -0.46 1.83 57.03 56.98 -81.42 5.29 0 0 -43.64 1.15 3.68 3.01 0 0 15.80 -0 0 9.37 0.29 2.59 -16.60 -2.56 5.88 4.34 0 0 -8.78 0.04 1.58 2.16 0 0 -10.24 0 0 9.47 0.83 0.29 -18.95 -6.16 5.18 4.77 0 0 -14.58 -0.19 1.27 2.87 0 0 -7.13 -0 0.40 8.65 1.01 -1.70 -19.81 -0.61 5.38 4.54 0 0 -12.91 0 0 2.50 0 0 -3.24 0 0 7.69 0.66 -3.90 -15.90 -10.36 3.02 3.21 0 0 -11.64 0 0 1.92 0 0 -6.44 0 0 -4.06 26.61 -1.12 5.65 -3.88 7.10 -14.17 0 0 75.87 31.58 -0.56 -26.12 0 0 0 0 2.16 -27.71 0 0 -3.33 -18.10 23.38 -2.29 -0.46 1.83 -141.79 4.65 171.78 -5.29 0 0 24.80 0.35 22.00 -3.01 0 0 -10.64 -0.02 -0.33 -9.37 0.29 2.59 7.40 -3.36 -19.28 -4.34 0 0 8.29 0.18 -1.09 -2.16 0 0 10.45 -0.09 -0.99 -9.47 0.83 0.29 32.85 -1.32 -13.92 -4.77 0 0 31.23 -0.92 -2.11 -2.87 0 0 7.21 0.05 -2.14 -8.65 1.01 -1.70 22.56 -10.58 -17.10 -4.54 0 0 56.08 -0.62 -0.48 -2.50 0 0 9.02 -0 -1.26 -7.69 0.66 -3.90 17.28 -25.93 -8.78 -3.21 0 0 60.38 -3.86 -3.21 -1.92 0 0 60.70 -3.80 -3.14 8.73 -0 0 10.41 1.44 37.26 0 -46.66 0 0 12.90 0 0 -40.14 0 -10.92 -8.44 -1.71 0 -8.88 14.22 0 0 0 -8.73 0 -0 -8.16 -11.40 -34.24 0 -46.66 0 0 22.22 0 0 -40.14 0 7.92 -1.32 -1.32 0 -8.88 14.22 -0 0 0 
1.07 95.68 0.46 -2.65 -2.37 -9.97 -0.82 7.19 -0 3.85 -0.19 -0.60 0 16.54 -0 0.33 4.76 -1.57 0 34.21 0 -0.72 36.97 0.09 0 6.29 0 0.29 -33.96 -0.82 4.06 26.61 -1.12 -7.68 -3.98 -4.58 14.17 0 0 -81.00 45.50 20.69 26.12 0 0 0 0 -20.23 27.71 0 0 5.78 -47.15 3.51 2.29 -0.46 1.83 57.05 56.98 -81.43 5.29 0 0 -43.64 1.15 3.68 3.01 0 0 15.80 0 0 9.37 0.29 2.59 -16.60 -2.55 5.88 4.34 0 0 -8.78 0.05 1.58 2.16 0 0 -10.24 0 0 9.47 0.83 0.29 -18.95 -6.15 5.19 4.77 0 0 -14.58 -0.19 1.28 2.87 0 0 -7.13 -0 0.40 8.65 1.01 -1.70 -19.81 -0.60 5.38 4.54 0 0 -12.91 0 0 2.50 0 0 -3.24 0 0 7.69 0.66 -3.90 -15.90 -10.35 3.02 3.21 0 0 -11.64 0 0 1.92 0 0 -6.44 0 0 -4.06 26.61 -1.12 5.65 -3.88 7.10 -14.17 0 0 75.71 31.73 -0.46 -26.12 0 0 0 0 2.16 -27.71 0 0 -3.33 -18.10 23.38 -2.29 -0.46 1.83 -141.79 4.65 171.78 -5.29 0 0 24.80 0.35 22.00 -3.01 0 0 -10.64 -0.02 -0.33 -9.37 0.29 2.59 7.40 -3.36 -19.28 -4.34 0 0 8.29 0.18 -1.09 -2.16 0 0 10.45 -0.09 -0.99 -9.47 0.83 0.29 32.85 -1.32 -13.92 -4.77 0 0 31.23 -0.92 -2.11 -2.87 0 0 7.21 0.05 -2.14 -8.65 1.01 -1.70 22.56 -10.58 -17.10 -4.54 0 0 56.08 -0.62 -0.48 -2.50 0 0 9.02 -0 -1.26 -7.69 0.66 -3.90 17.28 -25.93 -8.78 -3.21 0 0 60.38 -3.86 -3.21 -1.92 0 0 60.70 -3.80 -3.14 8.73 -0 0 10.16 1.23 37.03 0 -46.66 0 0 13.26 0 0 -40.14 0 -10.69 -8.72 -2.02 0 -8.88 14.22 0 0 0 -8.73 0 -0 -8.27 -12.00 -34.53 0 -46.66 0 0 22.60 0 0 -40.14 0 7.90 -1.14 -1.40 0 -8.88 14.22 -0 0 0 
1.07 95.60 0.46 -2.56 -2.39 -9.97 -0.81 7.19 -0 3.82 -0.18 -0.63 0 16.54 -0 0.37 4.82 -1.71 0 34.21 0 -0.89 36.57 0 0 6.29 0 0.40 -33.49 -0.38 4.06 26.61 -1.12 -7.55 -4.02 -4.36 14.17 0 0 -81.14 45.76 21.13 26.12 0 0 0 0 -21.23 27.71 0 0 6.49 -47.30 4.07 2.29 -0.46 1.83 57.06 56.98 -81.44 5.29 0 0 -43.64 1.16 3.69 3.01 0 0 15.80 0.01 0 9.37 0.29 2.59 -16.60 -2.55 5.89 4.34 0 0 -8.78 0.05 1.58 2.16 0 0 -10.24 0.01 0 9.47 0.83 0.29 -18.95 -6.15 5.19 4.77 0 0 -14.58 -0.18 1.28 2.87 0 0 -7.13 0 0.41 8.65 1.01 -1.70 -19.81 -0.59 5.38 4.54 0 0 -12.91 0.01 0 2.50 0 0 -3.24 0.01 0 7.69 0.66 -3.90 -15.90 -10.35 3.02 3.21 0 0 -11.64 0.01 0 1.92 0 0 -6.44 0.01 0 -4.06 26.61 -1.12 5.54 -3.91 6.89 -14.17 0 0 75.21 31.72 -0.17 -26.12 0 0 0 0 2.63 -27.71 0 0 -3.48 -17.21 22.56 -2.29 -0.46 1.83 -141.79 4.65 171.78 -5.29 0 0 24.80 0.35 22.00 -3.01 0 0 -10.64 -0.02 -0.33 -9.37 0.29 2.59 7.40 -3.36 -19.28 -4.34 0 0 8.29 0.18 -1.09 -2.16 0 0 10.45 -0.09 -0.99 -9.47 0.83 0.29 32.85 -1.32 -13.92 -4.77 0 0 31.23 -0.92 -2.11 -2.87 0 0 7.21 0.05 -2.14 -8.65 1.01 -1.70 22.56 -10.58 -17.10 -4.54 0 0 56.08 -0.62 -0.48 -2.50 0 0 9.02 -0 -1.26 -7.69 0.66 -3.90 17.28 -25.93 -8.78 -3.21 0 0 60.38 -3.86 -3.21 -1.92 0 0 60.70 -3.80 -3.14 8.73 -0 0 9.91 1.02 36.79 0 -46.66 0 0 13.63 0 0 -40.14 0 -10.44 -9.01 -2.33 0 -8.88 14.22 0 0 0 -8.73 0 -0 -8.39 -12.61 -34.81 0 -46.66 0 0 22.94 0 0 -40.14 0 7.86 -0.98 -1.47 0 -8.88 14.22 -0 0 0 
1.07 95.52 0.46 -2.47 -2.41 -9.97 -0.80 7.19 -0 3.79 -0.16 -0.65 0 16.54 -0 0.42 4.89 -1.85 0 34.21 0 -1.06 36.15 -0.08 0 6.29 0 0.51 -33.00 0.06 4.06 26.61 -1.12 -7.42 -4.06 -4.16 14.17 0 0 -81.27 46.00 21.54 26.12 0 0 0 0 -22.19 27.71 0 0 7.17 -47.44 4.62 2.29 -0.46 1.83 57.07 56.98 -81.44 5.29 0 0 -43.64 1.17 3.69 3.01 0 0 15.80 0.01 0 9.37 0.29 2.59 -16.60 -2.54 5.89 4.34 0 0 -8.78 0.06 1.59 2.16 0 0 -10.24 0.01 0 9.47 0.83 0.29 -18.95 -6.14 5.19 4.77 0 0 -14.58 -0.17 1.28 2.87 0 0 -7.13 0.01 0.41 8.65 1.01 -1.70 -19.81 -0.59 5.39 4.54 0 0 -12.91 0.01 0 2.50 0 0 -3.24 0.01 0 7.69 0.66 -3.90 -15.90 -10.34 3.03 3.21 0 0 -11.64 0.01 0 1.92 0 0 -6.44 0.01 0 -4.06 26.61 -1.12 5.42 -3.94 6.67 -14.17 0 0 74.70 31.71 0.12 -26.12 0 0 0 0 3.12 -27.71 0 0 -3.63 -16.29 21.71 -2.29 -0.46 1.83 -141.79 4.65 171.78 -5.29 0 0 24.80 0.35 22.00 -3.01 0 0 -10.64 -0.02 -0.33 -9.37 0.29 2.59 7.40 -3.36 -19.28 -4.34 0 0 8.29 0.18 -1.09 -2.16 0 0 10.45 -0.09 -0.99 -9.47 0.83 0.29 32.85 -1.32 -13.92 -4.77 0 0 31.23 -0.92 -2.11 -2.87 0 0 7.21 0.05 -2.14 -8.65 1.01 -1.70 22.56 -10.58 -17.10 -4.54 0 0 56.08 -0.62 -0.48 -2.50 0 0 9.02 -0 -1.26 -7.69 0.66 -3.90 17.28 -25.93 -8.78 -3.21 0 0 60.38 -3.86 -3.21 -1.92 0 0 60.70 -3.80 -3.14 8.73 -0 0 9.64 0.80 36.54 0 -46.66 0 0 14.02 0 0 -40.14 0 -10.20 -9.31 -2.64 0 -8.88 14.22 0 0 0 -8.73 0 -0 -8.52 -13.23 -35.10 0 -46.66 0 0 23.24 0 0 -40.14 0 7.82 -0.83 -1.56 0 -8.88 14.22 -0 0 0 
